<?xml version="1.0" standalone="no"?>
<!DOCTYPE svg PUBLIC "-//W3C//DTD SVG 20010904//EN"
 "http://www.w3.org/TR/2001/REC-SVG-20010904/DTD/svg10.dtd">
<svg version="1.0" xmlns="http://www.w3.org/2000/svg"
 width="1080.000000pt" height="1080.000000pt" viewBox="0 0 1080.000000 1080.000000"
 preserveAspectRatio="xMidYMid meet">

<g transform="translate(0.000000,1080.000000) scale(0.100000,-0.100000)"
fill="#000000" stroke="none">
<path d="M4743 7506 c-39 -6 -75 -14 -79 -18 -4 -5 -15 -8 -25 -8 -18 0 -47
-15 -115 -56 -166 -102 -266 -336 -251 -585 9 -133 18 -212 27 -224 4 -5 11
-26 15 -45 4 -19 24 -71 44 -115 65 -141 65 -136 62 -412 -2 -272 13 -435 50
-520 10 -25 19 -49 19 -54 0 -17 44 -103 80 -158 19 -29 40 -61 45 -70 20 -34
134 -151 147 -151 3 0 13 -6 20 -13 20 -20 100 -71 133 -86 140 -61 162 -65
340 -65 152 0 177 2 240 23 73 25 168 70 173 84 2 4 9 7 15 7 24 0 161 145
193 205 52 96 76 146 90 189 9 28 20 56 24 61 4 6 10 28 14 50 3 22 11 63 16
90 11 51 24 228 36 480 5 105 12 161 31 225 14 47 29 89 34 95 5 5 9 16 9 25
0 18 35 60 50 60 11 0 40 -94 40 -131 0 -29 39 -187 64 -261 14 -41 16 -85 13
-300 -4 -249 -10 -323 -28 -334 -5 -3 -9 -18 -9 -33 0 -40 -102 -281 -122
-289 -4 -2 -8 -12 -8 -23 0 -10 -4 -19 -8 -19 -4 0 -15 -13 -25 -29 -30 -52
-109 -131 -211 -214 -106 -86 -125 -99 -191 -129 -22 -10 -48 -23 -57 -28 -9
-5 -52 -20 -95 -32 -66 -19 -107 -23 -272 -26 -184 -3 -200 -1 -295 24 -56 14
-105 29 -111 33 -5 4 -26 14 -45 21 -19 7 -47 22 -62 32 -14 10 -33 18 -42 18
-9 0 -16 5 -16 10 0 6 -5 10 -11 10 -34 0 -218 167 -257 233 -9 15 -20 27 -24
27 -4 0 -8 6 -8 13 0 8 -9 22 -20 32 -11 10 -20 23 -20 28 0 6 -6 18 -14 26
-7 9 -28 45 -46 81 -18 36 -39 78 -48 94 -8 16 -18 43 -23 60 -4 17 -16 56
-25 86 -13 44 -18 129 -25 435 -5 209 -14 441 -19 515 -6 74 -14 298 -18 498
-6 288 -10 364 -21 371 -7 5 -29 5 -50 1 -110 -24 -262 -32 -375 -20 -63 7
-118 10 -123 7 -5 -3 -10 -240 -12 -539 -1 -293 -5 -536 -7 -540 -7 -11 -656
-10 -672 1 -11 6 -14 113 -15 544 -1 294 -5 538 -8 541 -3 3 -44 1 -90 -5 -95
-13 -364 -6 -418 10 -27 8 -37 8 -43 -2 -4 -6 -6 -221 -3 -477 4 -421 -1 -605
-21 -698 -4 -21 -1 -44 10 -66 15 -31 16 -110 16 -768 0 -403 0 -739 0 -745 0
-20 19 -16 149 27 120 40 176 48 209 31 43 -24 161 -63 178 -59 18 3 19 22 22
508 1 278 5 515 7 528 l5 22 340 0 c187 0 340 -3 341 -7 0 -5 1 -239 2 -522 2
-589 -6 -545 94 -522 114 27 191 25 299 -4 54 -15 109 -32 122 -38 16 -8 28
-8 40 -1 14 9 16 39 14 260 -2 247 4 324 23 326 6 1 33 -32 62 -73 60 -87 204
-237 285 -298 106 -79 260 -162 353 -190 22 -7 49 -16 60 -21 11 -4 54 -13 95
-20 41 -7 87 -16 101 -22 32 -11 254 -5 329 11 233 47 372 103 464 187 46 42
69 43 110 3 35 -32 80 -59 101 -59 7 0 15 -4 17 -8 2 -7 156 -58 278 -93 20
-6 107 -9 200 -6 186 4 260 18 377 73 39 19 76 34 82 34 6 0 11 5 11 10 0 6 5
10 11 10 7 0 35 16 63 37 160 114 290 295 325 453 7 30 17 69 22 86 12 40 12
269 0 308 -5 17 -15 51 -22 76 -20 71 -66 162 -136 267 -39 59 -216 242 -318
328 -142 121 -172 154 -189 205 -18 55 -21 116 -6 125 6 3 10 14 10 24 0 21
82 101 131 127 31 17 66 19 409 22 206 1 381 -1 388 -6 10 -7 14 -226 19
-1076 l6 -1068 31 5 c40 6 176 46 198 58 22 11 61 12 73 1 6 -5 35 -14 65 -21
30 -7 79 -21 108 -32 29 -10 59 -19 67 -19 13 0 15 143 17 1088 l3 1087 240 0
c132 0 248 2 258 3 16 2 17 21 15 295 l-3 292 -820 6 c-846 7 -1118 1 -1182
-26 -19 -8 -42 -15 -49 -15 -28 0 -254 -109 -254 -122 0 -4 -5 -8 -11 -8 -13
0 -106 -75 -131 -106 -9 -11 -29 -34 -45 -51 -15 -17 -37 -43 -47 -58 -61 -82
-82 -86 -91 -17 -4 26 -11 60 -16 76 -5 16 -9 42 -9 58 0 25 -24 91 -53 143
-6 11 -15 29 -21 40 -35 64 -115 151 -168 180 -29 17 -127 65 -153 75 -73 31
-332 29 -351 -1 -3 -5 -13 -9 -23 -9 -10 0 -51 -16 -92 -36 -71 -35 -135 -46
-148 -26 -17 26 -174 77 -266 86 -27 3 -66 7 -85 10 -19 2 -67 -1 -107 -8z
m247 -175 c71 -20 80 -24 80 -32 0 -5 7 -9 15 -9 8 0 36 -11 62 -24 96 -49
103 -51 123 -38 11 7 24 12 30 12 6 0 52 20 103 44 121 58 168 71 247 70 170
-2 297 -98 371 -279 21 -52 24 -76 24 -180 0 -119 -15 -192 -60 -300 -7 -16
-21 -48 -30 -70 -76 -180 -79 -193 -86 -445 -4 -171 -10 -253 -23 -300 -19
-73 -65 -180 -78 -180 -4 0 -8 -6 -8 -14 0 -39 -167 -182 -188 -161 -4 4 -5
70 -3 148 3 154 -15 289 -51 359 -10 21 -18 43 -18 50 0 13 -34 58 -81 109
-35 39 -134 89 -174 89 -45 0 -109 -35 -164 -90 -66 -66 -109 -142 -129 -230
-6 -25 -16 -66 -21 -92 -14 -62 -14 -256 0 -297 10 -27 9 -36 -4 -49 -25 -24
-68 -1 -152 83 -52 53 -66 71 -92 125 -58 122 -65 169 -64 434 1 270 -6 313
-70 437 -11 20 -19 44 -19 53 0 9 -4 16 -10 16 -5 0 -10 8 -10 18 0 10 -4 22
-9 28 -4 5 -19 47 -31 94 -43 162 -25 367 41 462 11 14 19 29 19 33 0 8 72 74
81 75 3 0 19 11 34 24 15 13 40 27 54 29 14 3 53 12 86 19 61 14 94 11 205
-21z m-2439 -201 c18 -5 48 -3 81 5 29 8 55 10 58 5 3 -4 7 -248 8 -542 2
-293 7 -537 11 -541 11 -11 997 -5 1008 6 4 5 10 252 13 550 5 534 5 542 25
541 11 -1 34 -8 51 -15 27 -11 37 -10 68 5 20 9 49 16 63 14 l27 -3 3 -1020
c3 -769 1 -1059 -9 -1180 l-13 -160 -40 3 c-30 2 -51 -4 -87 -27 -91 -58 -83
-105 -86 485 l-2 520 -452 -4 c-336 -3 -466 -1 -510 8 -32 7 -61 10 -64 8 -3
-3 -8 -208 -11 -454 -4 -361 -8 -453 -19 -471 -8 -13 -19 -23 -25 -23 -9 0
-97 -56 -109 -69 -9 -11 -60 -34 -64 -30 -2 2 -6 545 -8 1206 -4 874 -2 1203
6 1206 6 2 20 0 30 -5 10 -6 31 -14 47 -18z m6154 7 c3 -12 5 -71 3 -131 l-3
-109 -263 -1 -263 -1 0 -1015 c0 -558 -3 -1031 -7 -1050 -8 -33 -10 -35 -43
-32 -23 2 -57 -6 -93 -23 -32 -15 -64 -24 -71 -21 -17 6 -28 681 -23 1514 l3
622 -285 2 c-593 3 -683 -3 -797 -59 -45 -22 -100 -71 -153 -139 -31 -39 -60
-139 -60 -209 0 -70 29 -176 56 -203 8 -7 14 -17 14 -21 0 -12 106 -117 185
-185 107 -92 325 -313 325 -331 0 -8 3 -15 8 -15 4 0 13 -15 21 -32 8 -18 23
-53 34 -77 40 -91 54 -282 29 -406 -19 -96 -82 -212 -163 -299 -39 -42 -77
-76 -85 -76 -8 0 -14 -4 -14 -8 0 -5 -17 -17 -37 -28 -21 -11 -47 -25 -58 -31
-53 -29 -169 -63 -246 -74 -79 -11 -134 -9 -269 7 -45 5 -139 39 -213 75 -22
10 -43 19 -48 19 -6 0 -15 5 -22 10 -7 6 -22 18 -34 28 l-23 17 61 65 c33 36
68 77 77 92 9 15 22 30 29 33 8 2 51 -13 97 -34 103 -49 242 -70 346 -51 62
11 170 57 170 73 0 4 6 7 13 7 12 0 67 52 67 64 0 3 8 15 17 26 10 11 30 44
45 73 26 48 28 61 28 160 0 93 -3 116 -26 170 -48 113 -81 151 -363 417 -145
136 -215 232 -262 361 -34 91 -34 263 -1 364 48 145 97 220 198 302 72 58 83
65 159 102 126 60 158 64 545 70 195 3 588 7 872 8 l518 2 5 -22z m-3411
-1170 c38 -41 67 -97 81 -162 16 -71 22 -220 14 -349 -5 -76 -7 -146 -4 -156
15 -48 120 -53 230 -11 52 21 96 32 104 27 10 -7 3 -46 -8 -46 -4 0 -16 -8
-27 -17 -10 -10 -37 -27 -59 -39 -22 -11 -49 -25 -60 -31 -38 -20 -140 -61
-185 -75 -102 -30 -293 -9 -410 45 -69 33 -140 80 -140 95 0 6 0 15 0 20 0 4
47 7 103 7 84 0 110 4 141 20 l37 20 -6 130 c-11 240 -5 375 19 415 60 101 94
137 130 139 5 1 23 -14 40 -32z m1380 -252 c80 -80 146 -151 146 -159 0 -8 4
-16 8 -18 20 -8 62 -121 62 -168 0 -54 -24 -124 -52 -154 -10 -11 -18 -23 -18
-28 0 -4 -29 -22 -65 -39 -61 -29 -72 -31 -143 -27 -61 4 -89 12 -136 37 -46
25 -96 64 -96 75 0 1 10 29 21 61 51 142 75 259 91 438 8 85 16 127 24 127 6
0 77 -65 158 -145z"/>
<path d="M5587 7253 c-4 -3 -40 -10 -79 -14 -40 -4 -93 -13 -118 -19 -25 -6
-74 -16 -110 -20 -36 -5 -96 -14 -135 -20 -40 -6 -113 -9 -171 -5 -84 5 -103
4 -113 -9 -18 -21 6 -58 57 -89 85 -53 180 -73 276 -59 39 6 91 13 116 16 107
12 237 67 297 128 21 20 42 37 47 38 18 0 35 34 24 47 -11 14 -80 18 -91 6z"/>
<path d="M1563 6185 c-15 -17 -17 -45 -3 -45 6 0 10 9 10 20 0 21 16 26 40 10
9 -5 19 -5 27 1 8 7 18 7 31 0 13 -7 22 -7 30 1 9 9 15 9 23 1 8 -8 20 -8 36
-2 13 5 64 9 114 10 49 0 89 5 89 10 0 5 -84 9 -192 9 -154 -1 -196 -4 -205
-15z"/>
<path d="M8603 6188 c-41 -8 -53 -15 -53 -29 0 -12 -7 -19 -20 -19 -27 0 -25
-16 3 -34 19 -13 86 -20 152 -17 17 1 18 3 5 12 -11 8 -5 9 23 4 45 -7 94 11
100 37 3 11 15 18 29 18 29 0 55 16 44 27 -12 12 -224 13 -283 1z m-18 -78 c3
-5 1 -10 -4 -10 -6 0 -11 5 -11 10 0 6 2 10 4 10 3 0 8 -4 11 -10z"/>
<path d="M8980 6185 c0 -16 35 -21 44 -6 3 5 15 7 26 4 11 -3 20 -1 20 4 0 5
-20 10 -45 12 -35 1 -45 -2 -45 -14z"/>
<path d="M1682 6148 c-18 -18 -14 -27 8 -21 21 6 26 18 12 27 -5 3 -14 0 -20
-6z"/>
<path d="M1625 6110 c-3 -5 3 -10 15 -10 12 0 18 5 15 10 -3 6 -10 10 -15 10
-5 0 -12 -4 -15 -10z"/>
<path d="M8565 5900 c-3 -11 -13 -20 -21 -20 -8 0 -14 -8 -14 -19 0 -20 27
-48 37 -38 3 4 -1 9 -10 13 -22 8 -10 33 22 47 14 6 55 16 91 23 l65 11 -82 2
c-74 1 -82 -1 -88 -19z"/>
<path d="M1975 5889 c56 -11 95 -11 95 1 0 6 -28 10 -67 9 -63 -1 -65 -2 -28
-10z"/>
<path d="M1605 5869 c-4 -6 -5 -13 -2 -16 7 -7 27 6 27 18 0 12 -17 12 -25 -2z"/>
<path d="M2114 5859 c-7 -11 12 -29 31 -29 6 0 4 4 -4 9 -7 5 -10 14 -7 20 4
6 3 11 -3 11 -5 0 -13 -5 -17 -11z"/>
<path d="M8552 5617 c-26 -28 -29 -62 -6 -71 22 -8 33 3 14 14 -8 5 -11 12 -7
16 4 4 13 2 19 -4 7 -7 26 -12 43 -12 27 -1 28 -2 13 -14 -10 -7 -18 -16 -18
-20 0 -3 147 -6 327 -6 179 0 323 3 319 8 -4 4 -12 8 -17 8 -23 3 -23 6 1 19
14 8 34 14 45 14 19 0 19 -1 1 -8 -14 -5 -16 -10 -8 -15 29 -18 45 31 17 54
-12 10 -20 9 -40 -4 -27 -18 -80 -22 -70 -6 3 6 17 10 30 10 13 0 26 4 29 9 3
4 -59 11 -137 15 -400 18 -447 19 -447 8 0 -6 5 -12 12 -14 17 -6 2 -38 -18
-38 -12 0 -15 7 -12 25 4 19 1 25 -13 25 -11 0 -19 -7 -19 -15 0 -8 -9 -15
-20 -15 -11 0 -20 5 -20 10 0 6 5 10 10 10 6 0 10 5 10 10 0 17 -15 11 -38
-13z"/>
<path d="M1988 5623 c6 -2 18 -2 25 0 6 3 1 5 -13 5 -14 0 -19 -2 -12 -5z"/>
<path d="M1689 5609 c-28 -10 -42 -38 -29 -59 10 -16 110 -19 110 -4 0 18 30
25 36 9 7 -18 24 -10 24 11 0 9 -11 14 -30 14 -21 0 -30 5 -30 16 0 9 5 12 12
8 7 -4 8 -3 4 4 -9 14 -60 14 -97 1z"/>
<path d="M2558 3953 c-2 -98 1 -184 6 -190 20 -30 223 9 275 52 55 46 91 141
61 160 -5 3 -10 13 -10 21 0 25 -61 103 -93 119 -21 10 -62 15 -133 15 l-103
0 -3 -177z m213 76 c35 -14 57 -76 40 -116 -18 -44 -112 -84 -161 -68 -18 6
-20 15 -20 90 0 102 11 118 73 109 23 -3 54 -10 68 -15z"/>
<path d="M3217 4123 c-85 -3 -109 -7 -114 -19 -3 -8 -2 -89 2 -179 l7 -165
134 0 134 0 0 35 0 35 -94 0 c-86 0 -95 2 -101 20 -3 11 -3 29 0 40 6 18 15
20 91 20 l84 0 0 35 0 35 -85 0 c-83 0 -85 1 -91 26 -4 14 -3 29 2 34 5 5 50
10 99 12 l90 3 3 29 c4 30 -11 47 -38 44 -8 -1 -64 -4 -123 -5z"/>
<path d="M3582 3948 l3 -183 30 0 c28 0 30 3 37 45 3 25 7 66 7 92 1 58 15 68
44 31 20 -26 88 -99 139 -150 13 -13 35 -23 50 -23 l28 0 0 185 0 185 -40 0
-40 0 0 -90 c0 -73 -3 -92 -16 -97 -9 -3 -21 3 -32 18 -9 13 -48 57 -86 97
-54 56 -75 72 -98 72 l-28 0 2 -182z"/>
<path d="M4100 4090 c0 -38 2 -40 29 -40 16 0 41 -4 55 -10 25 -9 26 -12 27
-102 0 -138 8 -170 42 -179 24 -6 29 -4 38 17 5 14 9 60 10 102 0 42 4 97 7
122 7 44 8 45 48 48 38 3 42 6 48 34 3 17 6 34 6 39 0 5 -70 9 -155 9 l-155 0
0 -40z"/>
<path d="M4678 4116 c-10 -7 -18 -22 -18 -32 0 -10 -9 -30 -20 -44 -11 -14
-20 -31 -20 -38 0 -8 -8 -26 -19 -40 -74 -107 -92 -185 -45 -202 34 -13 32
-15 51 28 l18 37 78 3 c76 3 107 -8 107 -36 0 -16 36 -42 57 -42 22 0 37 22
23 36 -4 5 -15 33 -25 61 -9 29 -21 55 -26 58 -5 4 -9 15 -9 26 0 10 -4 27 -9
37 -5 9 -14 29 -20 45 -6 15 -15 37 -20 50 -6 12 -13 32 -16 45 -5 17 -14 22
-38 22 -18 0 -40 -7 -49 -14z m56 -153 c17 -35 17 -38 0 -50 -23 -17 -39 -16
-54 1 -9 12 -8 22 5 50 10 20 20 36 24 36 4 0 15 -17 25 -37z"/>
<path d="M5077 4123 c-12 -12 -8 -351 4 -359 13 -8 193 -6 227 3 19 4 23 11
20 37 -3 31 -4 31 -63 34 -113 4 -105 -5 -105 136 0 69 -3 131 -6 140 -6 16
-64 23 -77 9z"/>
<path d="M5945 4116 c-39 -14 -86 -51 -102 -79 -17 -31 -16 -138 2 -174 17
-33 69 -73 128 -98 45 -18 83 -11 152 30 49 28 54 41 28 61 -24 18 -43 17 -82
-2 -72 -36 -161 17 -161 95 0 32 6 44 35 70 40 35 91 41 153 19 31 -12 35 -11
53 11 15 19 17 27 7 38 -32 39 -145 55 -213 29z"/>
<path d="M6370 3945 l0 -186 128 3 127 3 0 35 0 35 -75 5 c-41 3 -81 9 -87 13
-9 6 -13 46 -13 143 l0 134 -40 0 -40 0 0 -185z"/>
<path d="M6815 4118 c-3 -7 -2 -90 2 -183 l8 -170 40 0 40 0 -4 45 c-2 25 -6
106 -10 180 l-6 135 -33 3 c-20 2 -34 -2 -37 -10z"/>
<path d="M7116 4111 c-13 -14 -16 -42 -16 -148 0 -185 9 -214 61 -198 17 6 19
17 19 90 0 46 4 86 9 89 5 3 17 -7 26 -22 26 -39 165 -172 181 -172 7 0 15 4
18 9 5 7 11 319 7 359 -1 17 -49 15 -67 -2 -10 -10 -14 -38 -14 -90 0 -41 -4
-77 -9 -80 -6 -4 -127 118 -151 154 -3 4 -15 12 -26 18 -17 9 -25 8 -38 -7z"/>
<path d="M7635 3958 c4 -95 8 -179 11 -185 5 -20 42 -15 54 6 11 21 14 308 4
335 -4 10 -18 16 -40 16 l-35 0 6 -172z"/>
<path d="M8004 4115 c-18 -8 -48 -33 -68 -56 -32 -38 -36 -49 -36 -100 0 -70
19 -118 62 -154 70 -59 128 -68 211 -33 69 28 81 40 73 72 -5 21 -12 26 -39
26 -17 0 -43 -9 -57 -20 -42 -33 -90 -23 -137 30 -38 41 -34 102 7 142 37 35
75 44 114 29 53 -22 60 -22 81 -7 24 18 14 41 -31 67 -36 21 -136 23 -180 4z"/>
<path d="M5375 3468 c-50 -27 -65 -50 -65 -99 0 -40 4 -51 31 -73 38 -32 63
-33 104 -2 55 42 54 114 -3 163 -30 26 -38 27 -67 11z"/>
</g>
</svg>
